<svg xmlns="http://www.w3.org/2000/svg" viewBox="0 0 48 48" role="img" aria-labelledby="title">
  <title id="title">Meta Ads</title>
  <rect width="48" height="48" rx="12" fill="#0866FF"/>
  <path fill="#fff" d="M11.2 30.6c0-8.5 4.2-16.2 9.5-16.2 3.2 0 5.7 2.5 8.1 6.3 2.4-3.8 4.9-6.3 8-6.3 5.4 0 8.8 6.3 8.8 13.6 0 4.3-1.8 7-4.8 7-3.5 0-6.2-3.2-9.2-8.2l-2.8-4.7-2.8 4.7c-3 5-5.6 8.2-9.3 8.2-3.4 0-5.5-1.6-5.5-4.4Zm5.7.1c1.6 0 3.4-2.2 6-6.5l2.6-4.2c-1.8-2.6-3.2-3.7-4.8-3.7-3.4 0-6.8 6.2-6.8 12.8 0 1.1.4 1.6 3 1.6Zm24-11.7c-1.4-2.3-2.7-3.2-4.2-3.2-1.7 0-3.4 1.6-5.5 4.8l3.1 5c2.5 4 4.2 5.7 5.9 5.7 1.3 0 2.2-1.1 2.2-3.2 0-3.7-.6-6.2-1.5-9.1Z"/>
</svg>
