<svg xmlns="http://www.w3.org/2000/svg" viewBox="0 0 128 128" role="img" aria-label="Clipper">
  <rect width="128" height="128" rx="28" fill="#111827"/>
  <path d="M30 39c0-7.2 5.8-13 13-13h42c7.2 0 13 5.8 13 13v50c0 7.2-5.8 13-13 13H43c-7.2 0-13-5.8-13-13V39z" fill="#2563eb"/>
  <path d="M55 47.5c0-3.8 4.1-6.2 7.4-4.3l27 15.6c3.3 1.9 3.3 6.7 0 8.6l-27 15.6c-3.3 1.9-7.4-.5-7.4-4.3V47.5z" fill="#f8fafc"/>
  <path d="M24 36h80" stroke="#60a5fa" stroke-width="8" stroke-linecap="round"/>
  <path d="M24 92h80" stroke="#60a5fa" stroke-width="8" stroke-linecap="round"/>
</svg>
