<svg xmlns="http://www.w3.org/2000/svg" viewBox="0 0 128 128" role="img" aria-label="Swift Games icon">
  <defs>
    <linearGradient id="g" x1="20" y1="18" x2="110" y2="112" gradientUnits="userSpaceOnUse">
      <stop stop-color="#fb7185"/>
      <stop offset="0.55" stop-color="#f59e0b"/>
      <stop offset="1" stop-color="#22d3ee"/>
    </linearGradient>
  </defs>
  <rect width="128" height="128" rx="24" fill="#111827"/>
  <path d="M32 74c0-16 13-29 29-29h6c16 0 29 13 29 29v10c0 9-7 16-16 16-5 0-9-2-12-6l-4-5H52l-4 5c-3 4-7 6-12 6-9 0-16-7-16-16V74z" fill="url(#g)" stroke="#fff7ed" stroke-opacity="0.82" stroke-width="4"/>
  <path d="M45 63v20M35 73h20" stroke="#111827" stroke-width="6" stroke-linecap="round"/>
  <circle cx="82" cy="68" r="6" fill="#111827"/>
  <circle cx="94" cy="80" r="6" fill="#111827"/>
  <path d="M60 31c8 11 17 16 28 17-10 3-22 1-31-6-7-5-12-13-15-22 5 4 11 8 18 11z" fill="#f97316"/>
</svg>
